inDegrees=no
num_controls=7
num_derivatives=13
num_iterations=182
num_multipliers=7
num_parameters=0
num_slacks=7
num_states=26
objective=6.618933
objective_accelerations=0.673481
objective_balance=0.084623
objective_effort=0.545391
objective_height=5.196594
objective_ligament=0.118843
solver_duration=1610.243882
status=Solve_Succeeded
success=true
DataType=double
version=3
OpenSimVersion=4.4-2022-07-23-0e9fedc
endheader
time	/jointset/ground_pelvis/pelvis_tilt/value	/jointset/ground_pelvis/pelvis_tx/value	/jointset/ground_pelvis/pelvis_ty/value	/jointset/hip_r/hip_flexion_r/value	/jointset/hip_r/hip_adduction_r/value	/jointset/hip_r/hip_rotation_r/value	/jointset/back/lumbar_extension/value	/jointset/patellofemoral_r/patellar_flexion_r/value	/jointset/knee_r/knee_flexion_r/value	/jointset/knee_r/knee_adduction_r/value	/jointset/knee_r/knee_rotation_r/value	/jointset/ankle_r/ankle_angle_r/value	/jointset/subtalar_r/subtalar_angle_r/value	/jointset/ground_pelvis/pelvis_tilt/speed	/jointset/ground_pelvis/pelvis_tx/speed	/jointset/ground_pelvis/pelvis_ty/speed	/jointset/hip_r/hip_flexion_r/speed	/jointset/hip_r/hip_adduction_r/speed	/jointset/hip_r/hip_rotation_r/speed	/jointset/back/lumbar_extension/speed	/jointset/patellofemoral_r/patellar_flexion_r/speed	/jointset/knee_r/knee_flexion_r/speed	/jointset/knee_r/knee_adduction_r/speed	/jointset/knee_r/knee_rotation_r/speed	/jointset/ankle_r/ankle_angle_r/speed	/jointset/subtalar_r/subtalar_angle_r/speed	/forceset/tau_hip_flexion_r	/forceset/tau_hip_adduction_r	/forceset/tau_hip_rotation_r	/forceset/tau_knee_flexion_r	/forceset/tau_ankle_angle_r	/forceset/tau_subtalar_angle_r	/forceset/tau_lumbar_extension	lambda_cid13_p0	lambda_cid14_p0	lambda_cid14_p1	lambda_cid14_p2	lambda_cid14_p3	lambda_cid14_p4	lambda_cid14_p5	/jointset/ground_pelvis/pelvis_tilt/accel	/jointset/ground_pelvis/pelvis_tx/accel	/jointset/ground_pelvis/pelvis_ty/accel	/jointset/hip_r/hip_flexion_r/accel	/jointset/hip_r/hip_adduction_r/accel	/jointset/hip_r/hip_rotation_r/accel	/jointset/back/lumbar_extension/accel	/jointset/patellofemoral_r/patellar_flexion_r/accel	/jointset/knee_r/knee_flexion_r/accel	/jointset/knee_r/knee_adduction_r/accel	/jointset/knee_r/knee_rotation_r/accel	/jointset/ankle_r/ankle_angle_r/accel	/jointset/subtalar_r/subtalar_angle_r/accel	gamma_cid13_p0	gamma_cid14_p0	gamma_cid14_p1	gamma_cid14_p2	gamma_cid14_p3	gamma_cid14_p4	gamma_cid14_p5
1.5	-0.1985094885250157	0.03280641072031251	0.8291033812651631	0.8954439791058706	-0.2433002580064209	-0.09204841823650867	-0.295415994701607	0.801696618207426	0.801696618207422	0.06313638841665689	0.1745281317848943	0.275178146910372	0.04139807317370905	0.4707831967823595	0.1827666748819001	0.5022782490610277	-2.085591808482505	0.03836705107303246	-0.4551896673719928	0.7001315289228393	-2.147487816398236	-2.147487816398219	0.1672325904001699	0.000223799468595588	-0.6255048625311962	-0.1119173176020958	-0.1249211429649923	-0.01479541383381534	0.01473955162567469	-0.3283578946751941	0.04962578569104736	-0.007233171893472628	0.1612359800062053	-25.27146728349145	-24.69573867995496	-3.742853279822863	-3.195375405101621	3.441062768581328	-648.7620748632824	56.75292921276788	0.2798056911762466	0.4241575228112971	-0.6276321315624129	-0.9880147333702493	0.1622091931943687	-0.2727679770887784	1.507443399098374	-1.375873237570135	-1.375873237570134	0.6085616518702022	-0.04293428425599704	-0.7608255131806325	0.06980670524265689	1.750225422679235e-07	1.048336872922965e-07	-1.802520900619192e-06	8.450784355268917e-07	1.342415543232036e-07	2.372443182219156e-07	-1.205097794483665e-06
1.51	-0.1937880410563459	0.03465503533604281	0.8340937072410468	0.8745409125753637	-0.2429093820911648	-0.09661451755530792	-0.2883407283157954	0.780155789373337	0.7801557893733699	0.06484035127376965	0.1745299789436135	0.2688856820512272	0.04028129638529095	0.4734332762026689	0.1869276872180675	0.4956760921197196	-2.094725839884751	0.03980149054886546	-0.4580082113046099	0.7148115989578627	-2.160363682319618	-2.160363682319603	0.1735607014323101	0.0001462534979049012	-0.6328905519721112	-0.1114246479190109	-0.1174288174135063	-0.01652870677590982	0.01420931857635513	-0.3246043270363086	0.05326124489403654	-0.00840350111451155	0.1545555391669906	-26.60411249170666	-23.31518068344909	-3.907248179527788	-3.285849882229972	3.017110534769882	-643.807971162861	56.50603773144875	0.2466664410999759	0.4075163942010662	-0.6930801833078011	-0.8317344490296972	0.1330446774312108	-0.2828316351583661	1.431766413643984	-1.196341349763445	-1.196341349763794	0.644792892256574	0.01007840333506737	-0.7127626046225999	0.04080730482837525	1.858819895775951e-07	1.140027429565922e-07	-1.906107999158046e-06	9.025489171199432e-07	1.362681030919846e-07	2.634550688811456e-07	-1.278513879905987e-06
1.52	-0.1890422813187436	0.0365443587361713	0.8390146971059389	0.85355537830976	-0.2425043651106238	-0.1012080891201931	-0.2811219657080448	0.7584956222639698	0.7584956222640324	0.06660756665388078	0.1745310992739971	0.2625222959086581	0.03916980833470084	0.4756456505686379	0.1909064317615363	0.4884110268626901	-2.102085355502113	0.0411952641308409	-0.4606841165896376	0.7288307733104654	-2.171355471454653	-2.171355471454641	0.1798830949992758	7.843379964405262e-05	-0.6396891192160548	-0.1108595700364489	-0.1099364918620155	-0.01826199971801063	0.01367908552698575	-0.3208507593974223	0.05689670409702277	-0.009573830335558583	0.1478750983277823	-27.91960549937037	-21.93944602842929	-4.067745806338629	-3.382362387470013	2.593142187227649	-638.9320531122494	56.32799691912018	0.1922646803082788	0.3877039642714333	-0.7602137947066792	-0.633111576393437	0.1540760144229368	-0.2442402475707472	1.375264262614311	-0.9990578803011171	-0.9990578803011211	0.6074181588352369	-0.04098902977025103	-0.6434010737864766	0.0842883451381404	1.967009781287617e-07	1.227861959089512e-07	-2.012977176582194e-06	9.570579604986943e-07	1.385063295427714e-07	2.911984557406184e-07	-1.352987358826898e-06
1.53	-0.1842765433012247	0.03847250885684018	0.8438598299893233	0.8325050117543219	-0.2420856816258613	-0.1058278017901248	-0.2737665094010748	0.7367349319493071	0.7367349319493283	0.06843807529804977	0.1745316918401883	0.2560938580654387	0.03806425598008811	0.4774267684510244	0.1946876797292524	0.4805135857142621	-2.107686815622001	0.04253372469357795	-0.4632343065370716	0.7421379914501742	-2.180459651198478	-2.180459651198451	0.1862172548181295	3.919355359900285e-05	-0.6458952486289182	-0.1102378626338735	-0.1024285728521652	-0.02015634282307171	0.01311407078072908	-0.3173505372762735	0.06069584965597533	-0.01085123273390451	0.1411960636712525	-29.21593320589889	-20.53712456873597	-4.274403726888494	-3.466588075329244	2.182332957561692	-634.388237049301	56.12106404289942	0.1597680798833762	0.3679767738740377	-0.8197366309988047	-0.4784770673949379	0.1225428556153297	-0.256496598448615	1.290076094836544	-0.8176996287228385	-0.8176996287206215	0.6459310984506261	0.01464720840479969	-0.5936897768301644	0.05284609786605789	2.074769792490169e-07	1.311599459798775e-07	-2.123333562821968e-06	1.008420475774751e-06	1.409694635306895e-07	3.205702685628491e-07	-1.42858431834006e-06
1.54	-0.1794952475573449	0.04043739976935689	0.8486229429900057	0.8114076678301645	-0.2416538511797929	-0.1104722340055514	-0.2662816558116697	0.7148928795157486	0.7148928795157232	0.07033182878141866	0.1745318997500371	0.2496064647477316	0.03696526753151066	0.4787571958405838	0.1982545901311046	0.4720070503222905	-2.111480829246232	0.04382465639296635	-0.4656280256892659	0.7547102297973702	-2.187627895234294	-2.187627895234252	0.1925320628385906	1.502524616439917e-06	-0.6514802141135387	-0.1095467888293478	-0.09492065384230979	-0.02205068592813141	0.01254905603443538	-0.3138503151551242	0.06449499521492706	-0.01212863513224792	0.1345170290147282	-30.4919996539041	-19.13780956714086	-4.476605565385504	-3.557215913092403	1.765296545088076	-629.8972435690029	55.98458931163994	0.1021265817429273	0.344836451098524	-0.8820326434154171	-0.2716222772623939	0.1445702417532639	-0.2129460885227099	1.228268304111787	-0.6118707386994789	-0.6118707386994791	0.6035477991566309	-0.0406791863578958	-0.5191682881379982	0.09816162552824276	2.174232068941476e-07	1.324238847728562e-07	-2.244551904391952e-06	1.034064625519315e-06	1.50949476666074e-07	3.340567061014321e-07	-1.500604841578616e-06
